<?xml version="1.0" standalone="no"?>
<!DOCTYPE svg PUBLIC "-//W3C//DTD SVG 20010904//EN"
 "http://www.w3.org/TR/2001/REC-SVG-20010904/DTD/svg10.dtd">
<svg version="1.0" xmlns="http://www.w3.org/2000/svg"
 width="249.000000pt" height="203.000000pt" viewBox="0 0 249.000000 203.000000"
 preserveAspectRatio="xMidYMid meet">

<g transform="translate(0.000000,203.000000) scale(0.100000,-0.100000)"
fill="#000000" stroke="none">
<path d="M1239 1637 c4 -4 61 -6 127 -5 l119 3 -127 5 c-70 3 -124 1 -119 -3z"/>
<path d="M806 958 c-14 -57 -29 -113 -32 -126 -7 -23 -6 -23 87 -20 89 3 94 4
97 26 3 21 0 22 -61 22 -63 0 -64 1 -60 25 5 22 10 24 67 27 55 3 61 5 64 26
3 21 0 22 -53 22 -48 0 -56 3 -51 16 3 9 6 20 6 24 0 5 30 10 66 12 59 3 68 6
75 26 8 22 8 22 -85 22 l-93 0 -27 -102z"/>
<path d="M1059 1018 c-6 -24 -21 -80 -34 -125 l-22 -83 27 0 c24 0 27 5 45 76
10 41 21 77 24 78 3 2 22 -32 41 -75 28 -64 39 -79 57 -79 24 0 21 -7 72 178
l19 72 -27 0 c-26 0 -28 -4 -45 -75 -10 -41 -21 -75 -24 -75 -4 1 -22 34 -41
75 -28 62 -38 75 -57 75 -19 0 -25 -8 -35 -42z"/>
<path d="M1362 1050 c-28 -12 -46 -51 -38 -85 4 -17 21 -32 51 -47 48 -23 60
-52 26 -63 -21 -6 -66 8 -76 25 -7 12 -45 -15 -45 -31 0 -15 58 -39 95 -39
110 0 143 97 49 143 -47 22 -58 51 -24 62 10 3 32 -1 48 -9 27 -14 31 -14 46
3 16 18 16 20 -6 35 -24 17 -89 20 -126 6z"/>
<path d="M1575 943 c-44 -65 -81 -121 -83 -125 -2 -4 8 -8 21 -8 17 0 33 10
47 30 19 27 27 30 76 30 53 0 54 0 54 -30 0 -27 3 -30 30 -30 27 0 29 3 25 28
-17 94 -35 208 -35 215 0 4 -12 7 -27 7 -24 -1 -39 -17 -108 -117z m104 -10
c1 -19 -4 -23 -29 -23 -36 0 -37 11 -8 53 20 27 22 28 29 11 4 -10 8 -29 8
-41z"/>
<path d="M1845 1048 c-2 -7 -18 -64 -34 -126 l-30 -113 27 3 c22 3 29 11 40
51 l13 47 51 0 c50 0 50 0 43 -27 -3 -16 -9 -38 -12 -50 -4 -19 -1 -23 21 -23
14 0 26 2 26 5 0 2 14 54 30 115 17 61 30 115 30 120 0 6 -11 10 -24 10 -21 0
-26 -7 -36 -50 l-12 -50 -50 0 -50 0 6 36 c4 19 10 42 13 50 4 10 -2 14 -21
14 -15 0 -29 -6 -31 -12z"/>
<path d="M2461 890 c-2 -40 -30 -140 -55 -195 l-22 -50 28 -23 c21 -17 29 -20
33 -10 27 81 40 208 27 263 -8 30 -10 34 -11 15z"/>
<path d="M241 578 c28 -73 80 -147 159 -227 113 -114 264 -200 465 -266 164
-54 256 -67 465 -68 199 -1 291 11 455 58 83 24 306 125 349 159 17 14 17 16
-18 52 -20 20 -41 52 -48 70 l-12 34 -601 0 -600 0 -30 25 -30 24 628 1 c550
0 627 2 627 15 0 13 -79 15 -648 15 l-648 0 -29 30 -29 30 687 0 c446 0 688 3
692 10 4 7 -231 10 -698 10 l-705 0 -26 35 -27 35 768 3 768 2 -967 3 -968 2
21 -52z m1774 -249 c-38 -17 -70 -18 -525 -18 -455 0 -487 1 -525 18 -40 19
-37 19 525 19 562 0 565 0 525 -19z m-275 -86 c-90 -20 -410 -20 -500 0 -62
14 -50 15 250 15 300 0 312 -1 250 -15z"/>
<path d="M2192 609 c-105 -52 -135 -199 -59 -286 97 -110 258 -89 318 42 24
51 24 99 0 150 -48 104 -158 144 -259 94z"/>
</g>
</svg>
